<svg width="3000" height="937" viewBox="0 0 3000 937" fill="none" xmlns="http://www.w3.org/2000/svg">
<path d="M1581.07 235.2C1581.07 268.9 1553.87 296.1 1520.17 296.1C1486.47 296.1 1459.27 268.9 1459.27 235.2C1459.27 201.5 1485.47 174.3 1520.17 174.3C1554.87 175.3 1581.07 202.4 1581.07 235.2ZM1329.87 358V373C1329.87 373 1300.77 335.5 1238.97 335.5C1136.77 335.5 1057.17 413.3 1057.17 521.1C1057.17 627.9 1135.87 706.7 1238.97 706.7C1301.77 706.7 1329.87 668.3 1329.87 668.3V684.2C1329.87 691.7 1335.47 697.3 1342.97 697.3H1418.87V344.9H1342.97C1335.57 344.9 1329.87 351.4 1329.87 358ZM1329.87 583.9C1315.77 604.5 1287.67 622.3 1253.97 622.3C1193.97 622.3 1148.07 584.8 1148.07 521.1C1148.07 457.4 1193.97 419.9 1253.97 419.9C1286.77 419.9 1316.77 438.6 1329.87 458.3V583.9ZM1475.17 344.9H1565.17V697.3H1475.17V344.9ZM2819.07 335.5C2757.17 335.5 2728.17 373 2728.17 373V175.3H2638.17V697.3H2714.07C2721.57 697.3 2727.17 690.7 2727.17 684.2V668.3C2727.17 668.3 2756.27 706.7 2818.07 706.7C2920.27 706.7 2999.87 628 2999.87 521.1C2999.87 414.2 2920.27 335.5 2819.07 335.5ZM2804.07 621.4C2769.37 621.4 2742.17 603.6 2728.17 583V457.3C2742.27 438.6 2772.17 418.9 2804.07 418.9C2864.07 418.9 2909.97 456.4 2909.97 520.1C2909.97 583.8 2864.07 621.4 2804.07 621.4ZM2591.37 488.3V698.2H2501.37V498.6C2501.37 440.5 2482.67 417.1 2431.97 417.1C2404.77 417.1 2376.67 431.2 2358.87 451.8V697.3H2268.87V344.9H2340.07C2347.57 344.9 2353.17 351.5 2353.17 358V373C2379.37 345.8 2414.07 335.5 2448.77 335.5C2488.17 335.5 2520.97 346.7 2547.17 369.2C2579.17 395.5 2591.37 429.2 2591.37 488.3ZM2050.57 335.5C1988.67 335.5 1959.67 373 1959.67 373V175.3H1869.67V697.3H1945.57C1953.07 697.3 1958.67 690.7 1958.67 684.2V668.3C1958.67 668.3 1987.77 706.7 2049.57 706.7C2151.77 706.7 2231.37 628 2231.37 521.1C2232.37 414.2 2152.77 335.5 2050.57 335.5ZM2035.57 621.4C2000.87 621.4 1973.67 603.6 1959.67 583V457.3C1973.77 438.6 2003.67 418.9 2035.57 418.9C2095.57 418.9 2141.47 456.4 2141.47 520.1C2141.47 583.8 2095.57 621.4 2035.57 621.4ZM1791.97 335.5C1819.17 335.5 1833.17 340.2 1833.17 340.2V423.6C1833.17 423.6 1758.17 398.3 1711.37 451.7V698.2H1621.37V344.9H1697.27C1704.77 344.9 1710.37 351.5 1710.37 358V373C1727.27 353.3 1763.87 335.5 1791.97 335.5ZM857.572 665.4C852.872 654.2 848.172 642 843.472 631.7C835.972 614.8 828.472 598.9 821.872 583.9L820.972 583C756.272 442.4 686.972 300 613.872 159.4L611.072 153.8C603.572 139.7 596.072 124.7 588.572 109.8C579.172 92.9 569.872 75.1 554.872 58.3C524.872 20.6 481.772 0 435.872 0C388.972 0 346.872 20.6 315.872 56.2C301.772 73.1 291.472 90.9 282.172 107.7C274.672 122.7 267.172 137.7 259.672 151.7L256.872 157.3C184.672 298 114.372 440.5 49.6723 581.1L48.7723 583C42.1723 598 34.6723 613.9 27.1723 630.8C22.4723 641.1 17.7723 652.4 13.0723 664.5C0.972322 699.1 -2.72768 731.9 1.97232 765.7C12.2723 836 59.0723 895 123.772 921.3C148.172 931.6 173.472 936.3 199.672 936.3C207.172 936.3 216.572 935.4 224.072 934.4C254.972 930.7 286.872 920.3 317.772 902.5C356.172 881 392.772 850 433.972 805C475.172 850 512.672 880.9 550.172 902.5C581.072 920.3 612.972 930.6 643.872 934.4C651.372 935.3 660.772 936.3 668.272 936.3C694.472 936.3 720.772 931.6 744.172 921.3C809.772 895 855.672 835 865.972 765.7C873.472 732.9 869.772 700.1 857.572 665.4ZM434.872 714.1C384.272 650.4 351.472 590.4 340.172 539.8C335.472 518.2 334.572 499.5 337.372 482.6C339.272 467.6 344.872 454.5 352.372 443.2C370.172 417.9 400.172 402 434.872 402C469.572 402 500.472 417 517.372 443.2C524.872 454.4 530.472 467.6 532.372 482.6C535.172 499.5 534.272 519.2 529.572 539.8C518.272 589.5 485.472 649.5 434.872 714.1ZM808.872 758.2C802.272 806.9 769.472 849.1 723.572 867.9C701.072 877.3 676.672 880.1 652.372 877.3C628.972 874.5 605.472 867 581.172 852.9C547.472 834.2 513.672 805.1 474.372 762C536.272 686.1 573.672 616.7 587.772 554.9C594.372 525.8 595.272 499.6 592.472 475.2C588.772 451.8 580.272 430.2 567.172 411.5C538.072 369.3 489.372 345 435.072 345C380.772 345 331.972 370.3 302.972 411.5C289.872 430.2 281.372 451.8 277.672 475.2C273.972 499.6 274.872 526.7 282.372 554.9C296.472 616.8 334.872 687 395.772 763C357.372 806.1 322.672 835.2 288.972 853.9C264.572 868 241.172 875.5 217.772 878.3C192.472 881.1 168.072 877.4 146.572 868.9C100.372 850 67.5723 807.9 60.9723 759.1C58.1723 735.7 60.0723 712.2 69.3723 686C72.1723 676.6 76.8723 667.3 81.5723 656C88.1723 641 95.6723 625.1 103.172 609.1L104.072 607.2C168.772 467.6 238.072 325.1 310.272 186.4L313.072 180.8C320.572 166.7 328.072 151.7 335.572 137.7C343.072 122.7 351.472 108.6 361.772 96.5C381.472 74 407.672 61.8 436.772 61.8C465.872 61.8 492.072 74 511.772 96.5C522.072 108.7 530.472 122.7 537.972 137.7C545.472 151.8 552.972 166.8 560.472 180.8L563.272 186.4C634.472 326 703.872 468.5 768.472 608.1V609C775.972 624 782.572 640.9 790.072 655.9C794.772 667.1 799.472 676.5 802.272 685.9C809.772 710.4 812.572 733.8 808.872 758.2Z" fill="#343434"/>
</svg>
