<svg width="800" height="155" viewBox="0 0 800 155" fill="none" xmlns="http://www.w3.org/2000/svg">
<path d="M128.13 0C142.599 2.5061 156.439 6.90733 169.382 12.9633C192.014 46.7604 203.259 84.8787 199.107 128.844C181.791 141.791 164.995 149.646 148.481 154.786C144.392 149.18 140.775 143.205 137.645 136.94C143.606 134.675 149.33 131.88 154.74 128.619C153.325 127.559 151.925 126.45 150.557 125.31C118.049 140.699 82.3005 140.699 49.3992 125.31C48.0468 126.45 46.6469 127.559 45.2159 128.619C50.6101 131.864 56.3191 134.659 62.2797 136.924C59.15 143.205 55.5171 149.164 51.4437 154.77C34.9459 149.63 18.1648 141.775 0.849122 128.844C-2.68951 90.9185 4.38775 52.4469 30.495 12.9954C43.4386 6.9235 57.2944 2.5061 71.7792 0C73.5721 3.21273 75.6953 7.53392 77.1263 10.9714C92.2246 8.65828 107.464 8.65828 122.845 10.9714C124.277 7.53392 126.353 3.21273 128.13 0ZM524.899 49.5102C535.907 49.5102 545.046 51.8716 552.312 56.594V77.1713C549.749 75.3721 546.759 73.9103 543.346 72.786C539.934 71.6616 536.285 71.0991 532.385 71.0991C525.56 71.0991 520.229 72.3682 516.375 74.9223C512.521 77.4764 510.589 80.8015 510.589 84.9297C510.589 88.9776 512.458 92.2868 516.202 94.8891C519.946 97.4753 525.371 98.7764 532.495 98.7764C536.159 98.7764 539.777 98.2301 543.346 97.154C546.901 96.0617 549.969 94.7285 552.531 93.1541V113.056C544.465 118.004 535.107 120.478 524.458 120.478C515.495 120.446 507.85 118.872 501.543 115.723C495.239 112.575 490.472 108.302 487.295 102.905C484.119 97.5073 482.515 91.4355 482.515 84.6888C482.515 77.9423 484.165 71.9025 487.468 66.5855C490.771 61.2685 495.614 57.0921 502.001 54.0561C508.385 51.0202 516.013 49.5102 524.899 49.5102ZM442.217 49.4948C448.381 49.4948 454.028 50.1694 459.173 51.5188C464.315 52.8682 468.561 54.5868 471.943 56.6911V74.3448C468.481 72.2405 464.518 70.586 459.99 69.3328C455.475 68.0961 450.837 67.4857 446.054 67.4857C439.15 67.4857 435.707 68.6903 435.707 71.0838C435.707 72.2084 436.242 73.0436 437.311 73.6058C438.379 74.168 440.345 74.7463 443.193 75.3567L454.201 77.3807C461.39 78.6498 466.752 80.8826 470.274 84.063C473.799 87.2436 475.558 91.9502 475.558 98.1827C475.558 105.009 472.65 110.423 466.815 114.439C460.979 118.455 452.707 120.462 441.981 120.462C435.674 120.447 429.543 119.659 423.597 118.085C417.652 116.511 412.288 114.23 407.524 111.226V92.5606C411.126 95.4036 415.953 97.7491 422.008 99.5963C428.062 101.428 433.914 102.343 439.575 102.343C442.217 102.343 444.215 101.99 445.566 101.283C446.92 100.576 447.598 99.7248 447.598 98.7449C447.598 97.6205 447.236 96.6889 446.496 95.9337C445.756 95.1789 444.325 94.5523 442.203 94.0221L428.992 90.9862C421.426 89.1873 416.062 86.6974 412.872 83.5008C409.678 80.3201 408.089 76.1437 408.089 70.9714C408.089 66.6182 409.473 62.8435 412.274 59.6146C415.056 56.386 419.02 53.8961 424.162 52.1451C429.307 50.3783 435.312 49.4948 442.217 49.4948ZM800 37.2384V118.198H773.026V103.468C770.745 109.009 767.286 113.234 762.632 116.125C757.975 119.001 752.219 120.447 745.394 120.447C739.292 120.447 733.977 118.936 729.43 115.901C724.886 112.865 721.38 108.704 718.91 103.419C716.457 98.1345 715.213 92.1591 715.213 85.4768C715.136 78.5856 716.441 72.4011 719.129 66.9235C721.805 61.4459 725.593 57.1732 730.469 54.1049C735.345 51.0369 740.912 49.4948 747.156 49.4948C759.784 49.4948 768.325 55.0023 772.794 66.0021L773.025 66.5844L773.026 37.2384H800ZM602.291 49.4787C611.022 49.4787 618.554 50.9725 624.861 53.9764C631.168 56.9802 635.981 61.0926 639.284 66.3451C642.587 71.598 644.237 77.6216 644.237 84.4486C644.237 91.1951 642.587 97.2993 639.284 102.777C635.981 108.254 631.152 112.559 624.798 115.708C618.444 118.856 610.942 120.43 602.278 120.43C593.611 120.43 586.109 118.872 579.771 115.724C573.418 112.575 568.574 108.27 565.239 102.793C561.906 97.3152 560.223 91.2112 560.223 84.4645C560.223 77.7181 561.889 71.6942 565.239 66.4096C568.588 61.1246 573.401 56.9802 579.725 53.9764C586.029 50.9725 593.564 49.4787 602.291 49.4787ZM395.48 67.919V118.551H368.588V67.919C376.828 71.5492 387.052 71.7098 395.48 67.919ZM700.367 50.9563C704.251 50.9563 707.587 51.8559 710.386 53.6549V77.9426C707.587 76.0631 703.969 75.1314 699.487 75.1314C693.619 75.1314 689.091 76.9468 685.944 80.577C682.784 84.2074 681.21 89.8616 681.21 97.5076V118.197H654.239V52.4181H680.662V73.3325C682.123 65.6862 684.5 60.0482 687.77 56.4016C691.026 52.7714 695.239 50.9563 700.367 50.9563ZM311.633 39.4872C321.983 39.4872 330.727 41.1416 337.9 44.4347C345.054 47.7274 350.418 52.3216 353.973 58.2008C357.525 64.08 359.318 70.8105 359.318 78.3924C359.318 85.8137 357.462 92.5442 353.751 98.5678C350.04 104.608 344.393 109.379 336.798 112.896C329.203 116.414 319.796 118.181 308.552 118.181H268.699V39.4872H311.633ZM66.7621 64.6068C56.7124 64.6068 48.7857 73.8432 48.7857 85.0714C48.7857 96.2996 56.8854 105.52 66.7621 105.52C76.8119 105.52 84.754 96.2996 84.7384 85.0714C84.9113 73.827 76.8119 64.6068 66.7621 64.6068ZM133.194 64.6068C123.144 64.6068 115.218 73.8432 115.218 85.0714C115.218 96.2996 123.317 105.52 133.194 105.52C143.244 105.52 151.17 96.2996 151.17 85.0714C151.343 73.827 143.244 64.6068 133.194 64.6068ZM602.278 70.2004C597.574 70.2004 593.893 71.5336 591.204 74.2C588.532 76.8668 587.194 80.4328 587.194 84.9305C587.194 89.4282 588.532 93.0425 591.204 95.7731C593.879 98.504 597.574 99.8854 602.278 99.8854C606.899 99.8693 610.55 98.504 613.223 95.7731C615.898 93.0425 617.249 89.4282 617.249 84.9305C617.249 80.4328 615.912 76.8506 613.223 74.2C610.55 71.5336 606.899 70.2004 602.278 70.2004ZM758.164 70.5378C753.619 70.5378 749.988 71.871 747.266 74.5375C744.544 77.2042 743.193 80.6576 743.193 84.9305C743.193 89.2035 744.544 92.6892 747.266 95.3877C749.988 98.0862 753.573 99.4356 758.054 99.4356C762.599 99.4197 766.247 98.0542 769.002 95.3236C771.754 92.5927 773.122 89.0428 773.122 84.7058C773.122 80.5131 771.784 77.0915 769.112 74.4733C766.436 71.8551 762.772 70.5378 758.164 70.5378ZM309.668 59.502H296.237V98.1824H308.111C315.078 98.1824 320.442 96.3994 324.184 92.8493C327.928 89.2832 329.8 84.4322 329.8 78.28C329.8 72.5774 328.131 68.0314 324.798 64.626C321.465 61.2206 316.416 59.502 309.668 59.502ZM382.046 34.748C389.472 34.748 395.494 40.2711 395.494 47.0844C395.494 53.8977 389.472 59.4211 382.046 59.4211C374.618 59.4211 368.599 53.8977 368.599 47.0844C368.599 40.2711 374.618 34.748 382.046 34.748Z" fill="#343434"/>
</svg>
