<svg width="2500" height="636" viewBox="0 0 2500 636" fill="none" xmlns="http://www.w3.org/2000/svg">
<g clip-path="url(#clip0_596_289)">
<path d="M918.062 300.386C918.062 134.675 712.436 0.41333 459.031 0.41333C205.627 0.41333 0.000244141 135.28 0.000244141 300.386V317.925C0.000244141 493.312 179.621 635.437 459.031 635.437C740.256 635.437 918.062 493.312 918.062 317.925V300.386Z" fill="#343434"/>
<path d="M900.492 300.344C900.492 455.774 702.728 582.778 459 582.778C215.272 582.778 17.5073 456.378 17.5073 300.344C17.5073 144.31 215.272 17.91 459 17.91C702.728 17.91 900.492 144.31 900.492 300.344Z" fill="#343434"/>
<path d="M312.378 210.943C312.378 211.547 307.54 215.781 310.563 219.41C317.821 228.481 338.988 233.32 360.761 228.481C373.461 225.457 390.395 212.152 406.119 199.452C423.658 185.542 440.592 171.632 458.131 166.189C476.274 160.141 488.37 162.56 496.232 164.979C504.699 167.398 514.98 172.841 530.705 184.937C560.944 207.919 682.506 313.756 703.068 331.899C720.002 324.037 794.995 291.984 897.204 269.607C888.132 215.176 855.474 165.584 805.277 124.458C735.122 154.093 649.847 169.213 566.387 128.087C565.782 128.087 520.424 106.315 476.274 107.525C409.748 109.339 381.323 137.764 351.084 168.003L312.378 210.943Z" fill="#D5D5D5"/>
<path d="M698.912 344.695C697.703 343.485 556.183 219.505 524.129 195.918C505.381 182.008 495.1 178.379 484.214 177.17C478.771 176.565 470.909 177.774 465.465 178.984C450.346 183.218 430.993 195.918 414.059 209.828C395.915 224.343 378.981 237.648 363.862 241.277C343.904 245.51 319.108 240.672 308.222 232.81C303.988 229.786 300.359 226.157 299.15 222.529C294.916 212.852 302.779 205.595 303.988 203.78L342.694 161.445C347.533 156.607 351.766 152.374 356.604 148.14C343.904 149.954 332.413 152.978 320.922 156.002C307.012 160.236 293.102 163.864 279.192 163.864C273.144 163.864 242.905 159.026 236.857 157.212C201.78 147.535 170.331 137.859 124.367 116.691C68.7271 157.817 31.8353 209.828 20.9492 266.678C28.8114 269.097 41.5119 272.726 46.9549 273.935C172.75 301.755 211.456 330.785 218.714 336.833C226.576 328.366 237.462 322.923 249.558 322.923C263.468 322.923 276.168 330.18 283.425 340.461C290.683 335.018 300.359 330.18 313.06 330.18C319.108 330.18 325.156 331.39 331.203 333.204C345.113 338.042 352.976 347.719 356.604 356.186C361.443 353.767 367.49 352.557 374.143 352.557C380.796 352.557 388.053 354.371 394.706 357.395C417.688 367.072 421.316 390.054 419.502 406.988H424.34C451.555 406.988 473.932 429.365 473.932 456.58C473.932 465.047 471.513 472.909 467.885 480.166C475.142 484.4 494.495 494.077 510.824 491.657C524.13 489.843 528.968 485.61 530.782 482.586C531.992 480.771 533.201 478.957 531.992 477.143L496.309 437.832C496.309 437.832 490.262 432.389 492.681 429.969C494.495 427.55 498.124 431.179 500.543 432.993C518.686 448.113 540.459 470.49 540.459 470.49C541.063 470.49 542.273 473.514 550.135 475.328C557.393 476.538 569.488 475.933 577.955 468.676C580.374 466.861 582.189 464.442 584.003 462.628L583.398 463.233C592.47 451.742 582.189 439.646 582.189 439.646L541.063 393.078C541.063 393.078 535.016 387.635 537.435 385.215C539.249 383.401 542.878 386.425 545.902 388.239C561.626 398.521 579.77 417.269 597.913 434.808C601.542 437.227 617.266 446.903 637.829 433.598C650.529 425.131 652.949 415.455 652.344 407.592C651.739 397.311 643.877 390.054 643.877 390.054L587.632 333.204C587.632 333.204 581.584 328.366 584.003 325.342C585.818 322.923 589.446 326.551 591.865 328.366C610.009 343.485 658.392 388.239 658.392 388.239C658.996 388.844 675.93 400.94 696.493 387.635C703.75 382.796 708.589 375.539 709.193 367.677C709.193 353.162 698.912 344.695 698.912 344.695Z" fill="#D5D5D5"/>
<path d="M425.231 416.653C416.764 416.653 407.087 421.491 405.878 420.887C405.273 420.282 406.482 416.653 407.087 414.839C407.692 413.024 419.183 377.947 391.363 365.851C369.591 356.779 356.89 367.061 352.052 371.899C350.842 373.109 350.237 373.109 350.237 371.294C349.633 365.246 347.214 348.312 328.465 342.265C301.855 334.402 284.921 352.546 280.687 359.199C278.873 344.079 266.172 332.588 250.448 332.588C233.514 332.588 219.604 346.498 219.604 363.432C219.604 380.366 233.514 394.276 250.448 394.276C258.915 394.276 266.172 391.252 271.616 385.809V387.019C270.406 394.276 267.987 422.096 297.016 433.587C308.507 437.821 318.789 434.797 326.651 428.749C329.07 426.934 329.675 427.539 329.07 429.958C327.86 437.216 329.07 452.335 350.842 460.802C367.171 467.455 376.848 460.802 382.896 454.754C385.92 452.335 386.525 452.94 386.525 456.569C387.129 477.736 404.668 494.065 425.231 494.065C446.398 494.065 463.937 476.527 463.937 455.359C463.937 433.587 446.398 416.653 425.231 416.653Z" fill="#D5D5D5"/>
<path d="M425.231 491.186C405.878 491.186 390.153 476.067 389.548 456.713C389.548 454.899 389.548 450.666 385.92 450.666C384.105 450.666 382.896 451.875 381.686 453.085C377.453 457.318 372.01 460.947 364.147 460.947C360.519 460.947 356.89 460.342 352.657 458.528C332.094 450.061 332.094 436.151 332.699 430.708C332.699 428.893 332.699 427.684 332.094 426.474L330.884 425.265H328.465C327.256 425.265 326.046 425.869 324.836 426.474C318.789 430.708 313.346 432.522 307.298 432.522C304.274 432.522 300.645 431.917 297.621 430.708C270.406 420.426 272.825 395.026 274.035 387.163C274.035 385.349 274.035 384.139 272.825 383.535L271.011 381.72L269.196 383.535C263.753 388.373 257.101 391.397 249.843 391.397C234.119 391.397 222.023 378.696 222.023 363.577C222.023 347.852 234.724 335.757 249.843 335.757C263.753 335.757 275.849 346.038 277.663 359.948L278.873 367.205L283.106 360.553C283.711 359.948 294.597 342.409 315.765 343.014C319.998 343.014 323.627 343.619 327.86 344.828C344.19 349.667 347.213 364.786 347.818 371.439C348.423 375.068 350.842 375.068 351.447 375.068C352.656 375.068 353.866 373.858 354.471 373.253C357.495 370.229 364.147 364.786 375.034 364.786C379.872 364.786 385.315 365.996 390.758 368.415C417.368 379.906 405.273 413.169 405.273 413.774C402.854 419.217 402.854 421.636 405.273 423.45L406.482 424.055H407.087C408.297 424.055 409.506 423.45 411.925 422.846C415.554 421.636 420.997 419.822 425.835 419.822C445.793 419.822 462.122 436.151 462.122 456.109C461.518 474.857 445.188 491.186 425.231 491.186ZM704.641 329.709C661.096 291.607 560.702 203.914 533.487 183.956C517.763 172.465 507.481 165.812 497.805 163.393C493.571 162.184 487.523 160.974 480.266 160.974C473.613 160.974 465.751 162.184 457.889 164.603C440.35 170.046 422.811 183.956 405.878 197.866L405.273 198.471C389.548 211.171 373.219 223.872 360.519 226.896C355.076 228.105 349.633 228.71 344.19 228.71C330.28 228.71 318.184 224.476 313.346 219.033C312.741 217.824 313.346 216.614 315.16 214.195V213.59L353.261 172.465C383.5 142.226 411.321 114.406 476.637 112.591H479.661C520.182 112.591 560.702 130.735 565.54 133.154C603.642 151.902 642.953 160.974 682.264 160.974C723.389 160.974 765.724 150.693 810.478 130.13C805.64 125.897 800.197 121.663 794.754 118.034C755.443 134.968 717.946 143.435 682.264 143.435C645.372 143.435 608.48 134.364 572.798 117.43C570.984 116.22 526.23 95.6574 479.661 95.6574H476.032C420.997 96.867 390.153 116.22 369.59 133.154C349.633 133.759 332.094 138.597 316.369 142.831C302.459 146.459 290.364 150.088 278.873 150.088C274.035 150.088 265.568 149.483 264.963 149.483C251.658 148.878 183.922 132.549 130.701 111.987C125.258 115.615 119.815 119.849 114.976 124.082C171.221 147.064 239.562 164.603 260.729 166.417C266.777 167.022 272.825 167.627 279.478 167.627C293.992 167.627 307.903 163.393 321.813 159.765C329.675 157.345 338.746 154.926 348.423 153.112C346.004 155.531 343.585 157.95 340.561 160.369L301.855 202.704C298.831 205.728 292.178 214.195 296.412 224.476C298.226 228.71 301.855 232.339 306.693 235.967C315.765 242.015 332.699 246.249 347.818 246.249C353.866 246.249 359.309 245.644 364.147 244.434C380.477 240.806 397.411 226.896 415.554 212.986C430.069 201.495 450.632 186.98 466.356 182.746C470.589 181.537 476.032 180.932 480.266 180.932H483.895C494.176 182.142 504.457 185.77 521.996 199.075C554.05 223.267 695.569 346.643 696.779 347.852C696.779 347.852 705.85 355.715 705.246 368.415C704.641 375.672 701.012 382.325 693.755 386.559C687.707 390.187 681.659 392.606 675.006 392.606C665.33 392.606 659.282 388.373 658.677 387.768C658.072 387.163 609.69 343.014 592.151 327.894C589.127 325.475 586.708 323.661 583.684 323.661C582.474 323.661 580.66 324.266 580.055 325.475C577.031 329.104 580.66 333.942 584.289 336.966L641.138 393.816C641.138 393.816 648.396 400.469 649.001 408.936C649.605 418.612 644.767 426.474 635.695 432.522C629.043 436.756 622.39 439.175 615.738 439.175C607.271 439.175 601.223 434.941 599.408 434.336L591.546 426.474C576.427 411.959 561.307 396.84 550.421 387.163C547.397 384.744 544.978 382.93 541.954 382.93C540.744 382.93 539.535 383.535 538.325 384.139C537.116 385.349 535.906 388.373 539.535 392.606C540.744 394.421 542.559 395.63 542.559 395.63L583.684 442.199C584.289 442.803 592.151 452.48 584.894 462.157H582.474L578.846 465.785C571.588 471.833 562.517 472.438 558.888 472.438C557.073 472.438 555.259 472.438 553.445 471.833C549.211 471.228 546.792 470.019 545.583 468.204L544.978 467.6C542.559 465.18 521.996 444.013 504.457 429.498C502.038 427.684 499.619 425.265 496.595 425.265C495.386 425.265 494.176 425.869 492.966 427.079C489.338 430.708 494.781 436.151 496.595 438.57L531.673 477.276C531.673 477.881 531.068 478.486 530.463 479.695C529.253 481.51 525.02 485.743 512.319 487.557H507.481C494.176 487.557 480.266 480.905 473.009 477.276C476.032 470.019 477.847 462.761 477.847 454.899C477.847 425.869 454.26 402.283 425.231 402.283H423.416C424.626 388.978 422.207 364.182 396.806 352.691C389.548 349.667 382.291 347.852 375.034 347.852C369.59 347.852 364.147 349.062 358.704 350.876C353.261 340.595 344.794 332.733 332.699 329.104C326.046 326.685 319.998 326.08 313.95 326.08C303.064 326.08 293.388 329.104 284.316 335.757C275.849 325.475 263.148 318.823 249.843 318.823C238.352 318.823 226.861 323.661 218.394 331.523C207.508 323.056 163.964 295.236 47.2406 269.23C41.7976 268.021 28.4923 264.392 20.6301 261.973C19.4206 268.021 18.211 274.673 17.6062 281.326C17.6062 281.326 38.7736 286.769 43.0071 287.374C162.15 313.984 201.461 341.2 208.113 346.643C205.694 352.086 204.484 358.134 204.484 363.577C204.484 388.373 224.442 408.331 249.238 408.331C252.262 408.331 254.682 408.331 257.101 407.726C260.729 425.869 272.825 439.78 290.969 446.432C296.412 448.247 301.855 449.456 306.693 449.456C310.322 449.456 313.346 448.851 316.974 448.247C320.603 456.713 327.86 467.6 344.794 474.252C350.842 476.671 356.285 477.881 362.333 477.881C367.171 477.881 371.405 477.276 375.638 475.462C383.5 494.815 402.854 508.12 424.021 508.12C437.931 508.12 451.841 502.677 461.518 492.396C469.985 497.234 488.128 505.701 506.272 505.701C508.691 505.701 511.11 505.701 512.924 505.096C531.068 502.677 539.535 496.024 543.163 490.581C543.768 489.372 544.373 488.767 544.978 487.557C549.211 488.767 554.05 489.977 559.493 489.977C569.169 489.977 578.846 486.348 588.522 479.695C597.594 473.043 604.247 463.366 605.456 454.899V454.294C609.085 454.294 612.714 454.899 615.738 454.899C626.019 454.899 635.695 451.875 645.372 445.827C663.516 433.732 667.144 418.007 666.539 407.726C669.563 408.331 673.192 408.936 676.216 408.936C685.893 408.936 694.964 405.912 704.036 400.469C715.527 393.211 722.18 382.325 723.389 369.02C723.994 359.948 722.18 351.481 717.341 343.619C748.185 330.314 818.34 304.913 900.591 286.164C899.986 279.512 899.381 273.464 898.172 267.416C797.777 289.188 723.389 321.242 704.641 329.709Z" fill="#343434"/>
<path d="M2434.51 227.857C2426.72 238.641 2415.34 243.434 2400.36 243.434C2385.38 243.434 2374 238.042 2366.21 227.857C2358.42 217.072 2354.23 202.093 2354.23 182.92C2354.23 163.747 2358.42 148.17 2366.21 137.984C2374 127.199 2385.98 122.406 2400.36 122.406C2415.34 122.406 2426.72 127.798 2434.51 137.984C2442.3 148.769 2446.49 163.747 2446.49 182.92C2446.49 202.692 2442.9 217.671 2434.51 227.857ZM2475.25 109.824C2459.08 89.4529 2433.91 79.2673 2400.36 79.2673C2366.81 79.2673 2342.24 89.4529 2325.47 109.824C2309.29 130.195 2300.9 154.76 2300.9 182.92C2300.9 211.679 2309.29 235.645 2325.47 256.017C2341.64 276.388 2366.81 286.573 2400.36 286.573C2433.91 286.573 2458.48 276.388 2475.25 256.017C2491.43 235.645 2499.82 211.08 2499.82 182.92C2499.82 154.76 2492.03 130.794 2475.25 109.824Z" fill="#343434"/>
<path d="M2029.96 203.821C2029.37 221.197 2024.57 232.581 2015.58 239.171C2006 245.762 1995.81 248.758 1985.03 248.758C1977.84 248.758 1971.85 246.96 1967.05 242.766C1962.26 239.171 1959.86 232.581 1959.86 223.593C1959.86 214.007 1964.06 206.817 1971.85 202.024C1976.64 199.028 1984.43 197.231 1995.21 194.834L2006.6 192.438C2012.59 191.239 2016.78 190.041 2020.38 188.843C2023.97 187.644 2026.97 185.847 2029.96 184.049V203.821ZM2055.73 92.9786C2038.95 84.5905 2019.78 80.3965 1998.81 80.3965C1965.86 80.3965 1942.49 88.7846 1929.31 106.16C1920.92 116.945 1916.13 131.324 1914.93 148.1H1964.06C1965.26 140.311 1967.65 134.32 1971.25 130.126C1976.04 124.134 1985.03 121.139 1997.01 121.139C2007.8 121.139 2016.18 122.337 2021.58 125.932C2026.97 128.928 2029.96 134.32 2029.96 142.708C2029.96 149.299 2026.37 154.092 2019.18 157.088C2014.99 158.885 2008.39 160.083 1998.81 161.282L1981.43 163.678C1961.66 166.075 1946.68 170.269 1936.5 176.26C1917.92 187.045 1908.34 204.421 1908.34 228.387C1908.34 246.96 1914.33 261.34 1925.71 271.525C1937.1 281.711 1952.07 285.905 1969.45 286.504C2080.89 291.297 2079.69 227.787 2080.89 214.606V141.51C2080.89 117.544 2072.5 101.367 2055.73 92.9786Z" fill="#343434"/>
<path d="M1802 124.073C1814.58 124.073 1824.17 128.267 1830.16 136.056C1834.35 142.047 1836.75 148.638 1837.95 155.828H1893.07C1890.07 128.267 1880.49 108.495 1863.71 97.7101C1847.54 86.9254 1826.57 81.5331 1800.8 81.5331C1770.24 81.5331 1746.88 90.5203 1729.5 109.094C1712.13 127.668 1703.74 153.431 1703.74 186.983C1703.74 216.342 1711.53 240.907 1727.11 258.881C1742.68 277.455 1767.25 286.442 1800.2 286.442C1833.16 286.442 1858.32 275.059 1875.1 252.89C1885.88 239.11 1891.27 224.73 1893.07 209.152H1838.55C1837.35 219.338 1834.35 227.726 1828.96 234.316C1823.57 240.907 1814.58 243.903 1802 243.903C1784.03 243.903 1772.04 236.114 1766.05 219.338C1762.46 210.949 1760.66 198.966 1760.66 185.186C1760.66 170.207 1762.46 158.224 1766.05 149.237C1771.44 132.461 1784.03 124.073 1802 124.073Z" fill="#343434"/>
<path d="M1688.55 80.9981C1575.91 80.9981 1582.5 181.056 1582.5 181.056V282.312H1633.42V187.048C1633.42 171.47 1635.22 160.086 1639.42 152.297C1646.61 139.116 1660.39 132.525 1680.76 132.525H1686.75C1689.15 132.525 1692.14 133.124 1695.14 133.124V80.9981H1688.55Z" fill="#343434"/>
<path d="M1431.61 134.039C1438.8 126.85 1448.99 122.656 1462.17 122.656C1474.15 122.656 1484.34 126.251 1492.13 133.44C1499.92 140.63 1504.71 150.816 1505.91 163.997H1418.43C1420.23 151.415 1424.42 141.229 1431.61 134.039ZM1500.52 229.304C1498.12 232.3 1496.32 235.296 1493.33 237.093C1486.14 243.085 1476.55 244.882 1464.57 244.882C1453.78 244.882 1444.8 243.085 1437.01 238.292C1424.42 230.503 1417.23 217.321 1416.04 197.549H1557.44C1557.44 180.773 1556.84 167.592 1555.64 159.204C1553.24 144.225 1547.85 130.445 1540.06 119.061C1531.07 105.879 1519.69 96.293 1506.51 90.3015C1492.73 84.31 1477.75 81.3143 1460.97 81.3143C1432.21 81.3143 1409.45 90.3015 1391.47 108.276C1373.5 126.251 1364.51 152.014 1364.51 185.566C1364.51 221.515 1374.69 247.279 1394.47 263.456C1414.24 279.633 1437.01 287.422 1462.77 287.422C1493.93 287.422 1518.49 277.835 1535.87 259.262C1545.45 249.076 1550.84 239.49 1553.84 229.903L1500.52 229.304Z" fill="#343434"/>
<path d="M1345.31 282.396H1298.57V164.364C1298.57 153.579 1294.98 127.816 1264.42 127.816C1244.05 127.816 1229.07 142.795 1229.07 164.364V282.396H1182.34V164.364C1182.34 153.579 1179.34 127.816 1148.19 127.816C1127.22 127.816 1112.84 142.795 1112.84 164.364V282.396H1066.1V165.562C1066.1 117.031 1098.46 80.483 1148.19 80.483C1172.75 80.483 1193.12 90.6685 1206.3 107.445C1220.08 90.6685 1240.46 80.483 1264.42 80.483C1315.35 80.483 1345.31 115.833 1345.31 165.562V282.396Z" fill="#343434"/>
<path d="M2224.7 228.57C2217.51 239.355 2206.12 244.747 2191.74 244.747C2177.36 244.747 2166.58 239.355 2159.39 228.57C2152.2 217.785 2148.6 202.207 2148.6 184.233C2148.6 167.457 2152.2 153.676 2158.79 142.292C2165.98 130.908 2176.76 125.516 2191.74 125.516C2201.33 125.516 2210.32 128.512 2217.51 134.503C2229.49 144.689 2235.48 163.263 2235.48 186.629C2236.08 204.005 2231.89 217.785 2224.7 228.57ZM2285.81 19.4666C2285.81 19.4666 2234.28 14.0742 2234.28 55.4156V110.537C2228.29 101.55 2221.1 94.3604 2212.11 88.968C2203.13 83.5757 2192.34 81.179 2180.96 81.179C2155.19 81.179 2134.82 90.7654 2119.85 109.938C2104.27 129.111 2097.08 156.672 2097.08 189.625C2097.08 218.384 2104.87 241.751 2120.44 260.325C2136.02 278.899 2166.58 286.688 2193.54 286.688C2287.61 286.688 2287.01 205.802 2287.01 205.802L2285.81 19.4666Z" fill="#343434"/>
<path d="M1984.42 432.467C1991.61 425.277 2001.8 421.682 2014.38 421.682C2026.36 421.682 2035.95 425.277 2044.34 431.868C2052.12 439.057 2056.92 449.243 2057.52 462.424H1970.64C1973.04 449.842 1977.23 439.657 1984.42 432.467ZM2052.72 527.133C2050.33 530.128 2048.53 532.525 2045.53 534.921C2038.34 540.913 2028.16 542.71 2016.77 542.71C2005.99 542.71 1997.6 540.913 1989.81 536.12C1977.23 528.331 1970.64 514.55 1969.44 495.378H2109.64C2109.64 478.601 2109.04 466.019 2107.85 457.032C2105.45 442.053 2100.66 428.872 2092.27 416.889C2083.28 403.708 2072.5 394.121 2058.72 388.13C2045.53 382.138 2029.96 379.142 2013.18 379.142C1985.02 379.142 1961.65 388.13 1944.28 406.104C1926.9 424.079 1917.92 449.243 1917.92 482.795C1917.92 518.744 1927.5 543.909 1947.27 560.086C1967.05 575.664 1989.81 584.052 2014.98 584.052C2046.13 584.052 2070.1 574.465 2087.47 555.892C2097.06 546.305 2102.45 536.12 2104.85 526.533H2052.72V527.133Z" fill="#343434"/>
<path d="M1909.05 380.204H1906.66C1794.02 380.204 1800.61 480.262 1800.61 480.262V579.721H1851.54V486.253C1851.54 470.675 1853.33 459.292 1857.53 451.503C1864.72 438.321 1878.5 431.731 1898.87 431.731H1904.86C1907.26 431.731 1910.25 432.33 1913.25 432.33V380.204H1909.05Z" fill="#343434"/>
<path d="M1454.86 353.825V579.105H1502.79V317.277C1503.39 317.277 1454.86 315.479 1454.86 353.825Z" fill="#343434"/>
<path d="M1593.9 367.9H1542.5V317H1593.9V367.9Z" fill="#343434"/>
<path d="M1542.4 579.7H1593.9V385.2H1542.4V579.7Z" fill="#343434"/>
<path d="M1731.77 579.211H1680.27L1612.59 385.157H1666.49L1705.42 521.713L1739.56 402.526C1743.75 390.547 1751.54 385.157 1762.92 385.157H1800.65L1731.77 579.211Z" fill="#343434"/>
</g>
<defs>
<clipPath id="clip0_596_289">
<rect width="2500" height="635.5" fill="white"/>
</clipPath>
</defs>
</svg>
