<svg width="2500" height="676" viewBox="0 0 2500 676" fill="none" xmlns="http://www.w3.org/2000/svg">
<path d="M2366.26 321.621L2500 675.675C2460.59 670.047 2421.19 662.996 2381.08 656.644L2305.74 461.015L2228.34 640.495C2190.34 634.143 2153.02 632.028 2115.02 627.095L2250.86 317.411L2127.66 0H2241.69L2310.65 177.343L2384.57 0H2499.98L2366.26 321.621ZM2037.61 0H1934.15V613.739C1967.93 615.857 2003.11 617.252 2037.61 621.464V0ZM1844.75 606.691C1750.45 600.36 1656.13 594.754 1559.71 592.614V0.00271914H1665.27V492.68C1725.81 494.077 1786.33 498.988 1844.75 501.802V606.691ZM1447.07 240.022V345.585H1302.79V585.585H1198.65V0H1494.26V105.563H1302.82V240.025H1447.09L1447.07 240.022ZM1021.26 105.563V591.216C986.061 591.216 950.184 591.216 915.678 592.614V105.563H806.581V0H1131.03V105.563H1021.26ZM692.572 351.194C646.129 351.194 591.219 351.194 551.805 353.334V510.27C613.741 506.036 675.678 501.125 738.311 499.01V600.36L446.242 623.604V0H738.292V105.563H551.802V247.747C592.635 247.747 655.271 245.631 692.567 245.631V351.216L692.572 351.194ZM107.659 292.072V660.878C69.6863 665.112 35.8791 670.044 0 675.675V0H100.655L237.887 383.606V0H343.472V632.028C306.173 638.38 268.157 640.495 228.044 646.105L107.659 292.072Z" fill="#343434"/>
</svg>
