<svg width="2500" height="665" viewBox="0 0 2500 665" fill="none" xmlns="http://www.w3.org/2000/svg">
<path d="M935.495 163.53H797.333C792.759 163.527 788.335 165.158 784.857 168.129C781.379 171.099 779.076 175.214 778.364 179.732L722.485 534.015C722.228 535.659 722.33 537.339 722.785 538.94C723.24 540.54 724.036 542.023 725.119 543.287C726.202 544.55 727.546 545.564 729.058 546.258C730.57 546.952 732.215 547.31 733.879 547.308H799.838C804.415 547.31 808.842 545.677 812.321 542.702C815.799 539.727 818.1 535.608 818.808 531.086L833.879 435.53C834.586 431.012 836.884 426.895 840.359 423.921C843.833 420.947 848.255 419.311 852.828 419.308H896.566C987.576 419.308 1040.1 375.268 1053.82 287.995C1060 249.813 1054.08 219.813 1036.2 198.803C1016.57 175.732 981.737 163.53 935.495 163.53ZM951.434 292.924C943.879 342.5 906 342.5 869.374 342.5H848.525L863.152 249.914C863.58 247.205 864.961 244.738 867.046 242.957C869.131 241.176 871.783 240.197 874.525 240.197H884.081C909.03 240.197 932.566 240.197 944.727 254.419C951.98 262.904 954.202 275.51 951.434 292.924ZM1348.48 291.328H1282.32C1279.58 291.328 1276.93 292.307 1274.84 294.088C1272.76 295.87 1271.38 298.337 1270.95 301.045L1268.02 319.55L1263.39 312.843C1249.07 292.056 1217.13 285.106 1185.25 285.106C1112.14 285.106 1049.7 340.48 1037.54 418.157C1031.21 456.904 1040.2 493.955 1062.18 519.793C1082.34 543.55 1111.19 553.449 1145.52 553.449C1204.42 553.449 1237.09 515.571 1237.09 515.571L1234.14 533.954C1233.88 535.598 1233.98 537.279 1234.42 538.882C1234.87 540.485 1235.67 541.971 1236.74 543.238C1237.82 544.506 1239.17 545.524 1240.68 546.223C1242.19 546.922 1243.83 547.285 1245.49 547.288H1305.09C1309.67 547.29 1314.09 545.656 1317.57 542.682C1321.05 539.707 1323.35 535.587 1324.06 531.066L1359.82 304.621C1360.08 302.981 1359.99 301.304 1359.54 299.704C1359.09 298.105 1358.3 296.622 1357.22 295.358C1356.14 294.094 1354.8 293.079 1353.3 292.384C1351.79 291.688 1350.15 291.328 1348.48 291.328ZM1256.26 420.096C1249.88 457.894 1219.88 483.268 1181.62 483.268C1162.4 483.268 1147.05 477.106 1137.19 465.429C1127.41 453.833 1123.7 437.328 1126.81 418.944C1132.77 381.47 1163.27 355.268 1200.95 355.268C1219.74 355.268 1235.01 361.51 1245.07 373.288C1255.15 385.187 1259.15 401.793 1256.26 420.096ZM1700.85 291.328H1634.36C1631.23 291.333 1628.14 292.103 1625.37 293.571C1622.6 295.039 1620.23 297.161 1618.46 299.752L1526.77 434.823L1487.9 305.025C1486.71 301.066 1484.27 297.597 1480.95 295.13C1477.63 292.663 1473.61 291.33 1469.47 291.328H1404.14C1402.31 291.323 1400.5 291.757 1398.87 292.592C1397.23 293.427 1395.82 294.64 1394.75 296.13C1393.69 297.62 1392.99 299.344 1392.72 301.159C1392.45 302.973 1392.62 304.825 1393.21 306.561L1466.44 521.47L1397.6 618.662C1396.37 620.385 1395.65 622.412 1395.5 624.52C1395.35 626.628 1395.78 628.736 1396.75 630.614C1397.72 632.492 1399.19 634.066 1401 635.165C1402.8 636.264 1404.88 636.844 1406.99 636.843H1473.39C1476.49 636.848 1479.55 636.1 1482.3 634.664C1485.05 633.229 1487.4 631.148 1489.17 628.601L1710.3 309.409C1711.5 307.682 1712.2 305.66 1712.34 303.562C1712.47 301.464 1712.02 299.37 1711.05 297.508C1710.07 295.645 1708.61 294.084 1706.81 292.995C1705.01 291.906 1702.95 291.329 1700.85 291.328Z" fill="#343434"/>
<path d="M1920.97 163.53H1782.79C1778.22 163.532 1773.8 165.165 1770.32 168.135C1766.85 171.105 1764.55 175.217 1763.84 179.732L1707.96 534.015C1707.7 535.656 1707.8 537.334 1708.25 538.933C1708.7 540.532 1709.49 542.015 1710.57 543.278C1711.65 544.542 1712.99 545.556 1714.5 546.252C1716.01 546.948 1717.65 547.308 1719.31 547.308H1790.22C1793.42 547.303 1796.51 546.157 1798.94 544.076C1801.37 541.995 1802.98 539.115 1803.47 535.954L1819.33 435.53C1820.04 431.012 1822.34 426.895 1825.81 423.92C1829.29 420.946 1833.71 419.31 1838.28 419.308H1882C1973.03 419.308 2025.54 375.267 2039.27 287.995C2045.47 249.813 2039.52 219.813 2021.64 198.803C2002.02 175.732 1967.21 163.53 1920.97 163.53ZM1936.91 292.924C1929.37 342.5 1891.5 342.5 1854.85 342.5H1834.02L1848.67 249.914C1849.09 247.205 1850.46 244.736 1852.54 242.954C1854.63 241.171 1857.28 240.193 1860.02 240.197H1869.58C1894.51 240.197 1918.06 240.197 1930.22 254.419C1937.47 262.904 1939.68 275.51 1936.91 292.924ZM2333.94 291.328H2267.82C2265.08 291.32 2262.42 292.297 2260.34 294.08C2258.26 295.863 2256.88 298.335 2256.46 301.045L2253.54 319.55L2248.89 312.843C2234.57 292.055 2202.65 285.106 2170.77 285.106C2097.66 285.106 2035.23 340.479 2023.07 418.156C2016.77 456.904 2025.72 493.954 2047.7 519.793C2067.9 543.55 2096.71 553.449 2131.03 553.449C2189.94 553.449 2222.61 515.57 2222.61 515.57L2219.66 533.954C2219.39 535.601 2219.49 537.286 2219.94 538.891C2220.39 540.497 2221.19 541.985 2222.27 543.253C2223.36 544.521 2224.7 545.539 2226.22 546.235C2227.73 546.932 2229.38 547.291 2231.05 547.288H2290.63C2295.2 547.285 2299.62 545.649 2303.1 542.675C2306.57 539.701 2308.87 535.584 2309.58 531.065L2345.35 304.621C2345.61 302.976 2345.5 301.295 2345.04 299.695C2344.59 298.094 2343.79 296.611 2342.7 295.349C2341.62 294.086 2340.28 293.072 2338.76 292.378C2337.25 291.684 2335.6 291.326 2333.94 291.328ZM2241.72 420.096C2235.37 457.894 2205.33 483.267 2167.07 483.267C2147.9 483.267 2132.51 477.106 2122.65 465.429C2112.87 453.833 2109.19 437.328 2112.26 418.944C2118.26 381.469 2148.73 355.267 2186.4 355.267C2205.19 355.267 2220.46 361.51 2230.53 373.288C2240.65 385.187 2244.65 401.793 2241.72 420.096ZM2411.94 173.247L2355.23 534.015C2354.97 535.656 2355.07 537.334 2355.52 538.933C2355.97 540.532 2356.77 542.015 2357.85 543.278C2358.92 544.542 2360.26 545.556 2361.77 546.252C2363.28 546.948 2364.92 547.308 2366.59 547.308H2423.6C2433.07 547.308 2441.11 540.439 2442.57 531.086L2498.48 176.823C2498.74 175.181 2498.65 173.502 2498.19 171.902C2497.74 170.301 2496.95 168.818 2495.87 167.553C2494.79 166.288 2493.45 165.271 2491.95 164.574C2490.44 163.876 2488.79 163.513 2487.13 163.51H2423.29C2420.55 163.519 2417.9 164.505 2415.82 166.289C2413.74 168.073 2412.37 170.54 2411.94 173.247Z" fill="#343434"/>
<path d="M148.727 616.157L159.293 549.046L135.758 548.5H23.3738L101.475 53.2883C101.707 51.7752 102.476 50.396 103.64 49.4022C104.805 48.4083 106.287 47.866 107.818 47.8741H297.313C360.222 47.8741 403.636 60.965 426.303 86.8034C436.929 98.9246 443.697 111.591 446.97 125.531C450.404 140.157 450.465 157.632 447.111 178.945L446.869 180.5V194.157L457.495 200.177C465.607 204.287 472.899 209.847 479.01 216.581C488.101 226.945 493.98 240.117 496.465 255.733C499.03 271.793 498.182 290.904 493.98 312.541C489.131 337.43 481.293 359.106 470.707 376.844C461.367 392.734 448.809 406.496 433.838 417.248C419.778 427.228 403.071 434.803 384.182 439.652C365.879 444.42 345.01 446.824 322.121 446.824H307.374C296.828 446.824 286.586 450.622 278.546 457.43C270.517 464.31 265.19 473.817 263.515 484.258L262.404 490.298L243.737 608.581L242.889 612.925C242.667 614.298 242.283 614.985 241.717 615.45C241.169 615.898 240.486 616.147 239.778 616.157H148.727Z" fill="#343434"/>
<path d="M467.555 182.076C466.99 185.692 466.343 189.389 465.616 193.187C440.626 321.49 355.131 365.814 245.939 365.814H190.343C176.99 365.814 165.737 375.51 163.656 388.682L135.192 569.207L127.131 620.379C126.81 622.409 126.933 624.484 127.491 626.462C128.048 628.44 129.028 630.273 130.363 631.836C131.697 633.399 133.354 634.654 135.22 635.515C137.086 636.376 139.117 636.823 141.172 636.824H239.778C251.454 636.824 261.374 628.339 263.212 616.824L264.182 611.814L282.747 493.995L283.939 487.531C285.757 475.975 295.697 467.49 307.374 467.49H322.121C417.656 467.49 492.444 428.702 514.303 316.46C523.434 269.571 518.707 230.42 494.545 202.884C486.887 194.366 477.741 187.315 467.555 182.076Z" fill="#343434"/>
<path d="M441.414 171.652C433.435 169.343 425.318 167.542 417.111 166.258C400.895 163.766 384.507 162.57 368.101 162.682H219.576C213.923 162.678 208.456 164.696 204.162 168.371C199.867 172.047 197.03 177.137 196.162 182.722L164.566 382.844L163.656 388.682C164.641 382.311 167.873 376.503 172.768 372.309C177.663 368.114 183.897 365.81 190.343 365.813H245.939C355.131 365.813 440.626 321.47 465.616 193.187C466.364 189.389 466.99 185.692 467.555 182.076C460.961 178.618 454.089 175.719 447.01 173.409C445.154 172.794 443.289 172.208 441.414 171.652Z" fill="#D5D5D5"/>
<path d="M196.16 182.722C197.021 177.135 199.857 172.042 204.153 168.368C208.45 164.695 213.921 162.684 219.574 162.702H368.099C385.695 162.702 402.119 163.853 417.109 166.277C427.253 167.872 437.256 170.256 447.029 173.409C454.402 175.853 461.251 178.742 467.574 182.075C475.008 134.661 467.513 102.378 441.877 73.1461C413.614 40.9643 362.604 27.1865 297.332 27.1865H107.837C94.5033 27.1865 83.1295 36.8835 81.0689 50.0754L2.13965 550.378C1.77201 552.701 1.91188 555.076 2.54965 557.34C3.18742 559.603 4.30794 561.702 5.83414 563.491C7.36034 565.28 9.256 566.718 11.3907 567.704C13.5254 568.691 15.8485 569.204 18.2003 569.207H135.19L164.564 382.843L196.16 182.722Z" fill="#343434"/>
</svg>
