<svg width="1000" height="323" viewBox="0 0 1000 323" fill="none" xmlns="http://www.w3.org/2000/svg">
<path d="M205.6 260.5H252.4V124.2H205.6V260.5ZM268.5 31.5H237V63H268.5V31.5ZM91.9 46.8H46.8V86.3H88.7C115.3 86.3 130.6 99.2 130.6 123.4C130.6 147.6 115.3 161.3 88.7 161.3H46.8V87.1H0V260.5H46.8V200.8H91.2C145.2 200.8 176.7 171.8 176.7 121.8C176.6 75 146 46.8 91.9 46.8ZM300 0H205.6V94.4H300V0ZM284.7 78.2H221.8V15.3H284.7V78.2ZM558.9 46.8H516.2V86.3H556.5C583.1 86.3 598.4 99.2 598.4 123.4C598.4 147.6 583.1 161.3 556.5 161.3H516.2V87.1H469.4V260.5H516.2V200.8H558.9C612.9 200.8 644.4 171.8 644.4 121.8C644.4 75 612.9 46.8 558.9 46.8ZM951.6 96.8L911.3 198.4L871 96.8H822.6L887.1 260.5L862.1 322.6H911.3L1000 96.8H951.6ZM741.9 96C713.7 96 691.9 102.5 667.7 114.5L682.2 146.8C699.1 137.1 716.1 132.3 731.4 132.3C754 132.3 765.3 142 765.3 159.7V162.9H720.1C679.8 162.9 658 181.4 658 212.1C658 241.9 679 262.9 714.5 262.9C737.1 262.9 753.2 254.8 766.1 241.1V258.8H812.1V152.4C810.5 117.7 785.5 96 741.9 96ZM769.4 205.6C764.6 219.3 750.9 230.6 731.5 230.6C715.4 230.6 705.7 222.5 705.7 209.6C705.7 196.7 714.6 191.1 732.3 191.1H769.4V205.6ZM371.8 225C349.2 225 333.1 207.3 333.1 180.6C333.1 154.8 349.2 137.1 371.8 137.1C387.9 137.1 400 143.6 408.9 154.8L440.4 132.2C425.9 110.4 400.9 97.5 369.4 97.5C320.2 96.7 286.3 130.6 286.3 180.6C286.3 230.6 320.2 263.7 369.4 263.7C403.3 263.7 428.3 250 442 227.4L409.7 205.6C401.6 218.5 388.7 225 371.8 225Z" fill="#343434"/>
</svg>
