<svg width="2500" height="750" viewBox="0 0 2500 750" fill="none" xmlns="http://www.w3.org/2000/svg">
<path d="M374.906 0C167.855 0 0 167.851 0 374.901C0 581.961 167.855 749.798 374.906 749.798C581.979 749.798 749.816 581.961 749.816 374.901C749.816 167.864 581.979 0.0179073 374.901 0.0179073L374.906 0ZM546.835 540.715C545.235 543.337 543.134 545.617 540.652 547.426C538.17 549.234 535.355 550.535 532.37 551.255C529.384 551.974 526.286 552.097 523.252 551.618C520.219 551.138 517.31 550.065 514.691 548.46C426.667 494.693 315.856 482.516 185.355 512.332C179.313 513.706 172.972 512.625 167.726 509.326C162.48 506.027 158.759 500.78 157.38 494.738C156.693 491.746 156.603 488.649 157.115 485.623C157.627 482.596 158.731 479.701 160.363 477.102C161.996 474.503 164.125 472.251 166.629 470.476C169.133 468.701 171.963 467.437 174.956 466.758C317.768 434.13 440.268 448.179 539.09 508.571C550.103 515.331 553.595 529.702 546.835 540.715ZM592.723 438.634C584.262 452.387 566.265 456.729 552.521 448.268C451.747 386.326 298.132 368.387 178.936 404.569C163.477 409.239 147.15 400.527 142.458 385.095C140.219 377.676 141.014 369.672 144.668 362.838C148.322 356.004 154.537 350.898 161.95 348.64C298.105 307.328 467.371 327.339 583.098 398.454C596.842 406.915 601.184 424.908 592.723 438.634ZM596.663 332.335C475.832 260.567 276.478 253.968 161.113 288.981C142.588 294.6 122.997 284.142 117.383 265.617C114.684 256.716 115.63 247.108 120.013 238.905C124.396 230.702 131.858 224.576 140.757 221.873C273.187 181.671 493.337 189.438 632.451 272.023C636.415 274.368 639.879 277.473 642.642 281.159C645.405 284.845 647.414 289.04 648.553 293.503C649.692 297.967 649.94 302.611 649.282 307.17C648.624 311.73 647.073 316.114 644.717 320.073C634.868 336.736 613.29 342.229 596.68 332.335H596.663ZM1019.99 346.088C955.259 330.652 943.754 319.818 943.754 297.053C943.754 275.546 963.989 261.073 994.118 261.073C1023.31 261.073 1052.23 272.063 1082.58 294.689C1083.48 295.374 1084.64 295.647 1085.76 295.468C1086.32 295.388 1086.86 295.193 1087.35 294.895C1087.83 294.598 1088.25 294.205 1088.58 293.74L1120.19 249.187C1120.81 248.303 1121.07 247.215 1120.93 246.144C1120.78 245.073 1120.22 244.099 1119.38 243.42C1083.25 214.442 1042.6 200.353 995.058 200.353C925.175 200.353 876.332 242.297 876.332 302.309C876.332 366.664 918.459 389.451 991.253 407.041C1053.17 421.308 1063.64 433.262 1063.64 454.625C1063.64 478.308 1042.51 493.037 1008.49 493.037C970.704 493.037 939.859 480.278 905.387 450.462C904.527 449.735 903.422 449.366 902.298 449.432C901.134 449.522 900.104 450.059 899.388 450.909L863.931 493.081C862.454 494.872 862.633 497.469 864.334 498.991C904.447 534.806 953.782 553.698 1007.06 553.698C1082.36 553.698 1131.02 512.556 1131.02 448.85C1131.16 395.096 1098.97 365.325 1020.13 346.146L1019.99 346.088ZM1301.41 282.248C1268.77 282.248 1242 295.106 1219.89 321.452V291.797C1219.89 290.676 1219.45 289.599 1218.66 288.802C1217.87 288.006 1216.8 287.555 1215.68 287.549H1157.7C1155.37 287.549 1153.49 289.456 1153.49 291.797V621.299C1153.49 623.627 1155.37 625.552 1157.7 625.552H1215.68C1218.01 625.552 1219.89 623.627 1219.89 621.299V517.301C1242 542.058 1268.77 554.191 1301.41 554.191C1362.07 554.191 1423.49 507.497 1423.49 418.233C1423.58 328.951 1362.16 282.244 1301.45 282.244L1301.41 282.248ZM1356.07 418.233C1356.07 463.668 1328.09 495.409 1287.98 495.409C1248.36 495.409 1218.45 462.236 1218.45 418.233C1218.45 374.225 1248.36 341.061 1287.98 341.061C1327.42 341.056 1356.07 373.509 1356.07 418.233ZM1580.86 282.248C1502.73 282.248 1441.54 342.399 1441.54 419.204C1441.54 495.186 1502.33 554.683 1579.92 554.683C1658.31 554.683 1719.68 494.738 1719.68 418.233C1719.68 341.987 1658.71 282.257 1580.86 282.257V282.248ZM1580.86 495.857C1539.31 495.857 1507.97 462.46 1507.97 418.21C1507.97 373.76 1538.24 341.504 1579.92 341.504C1621.73 341.504 1653.25 374.888 1653.25 419.182C1653.25 463.624 1622.8 495.857 1580.86 495.857ZM1886.49 287.549H1822.7V222.339C1822.7 221.784 1822.59 221.234 1822.38 220.72C1822.17 220.207 1821.86 219.739 1821.47 219.345C1821.08 218.951 1820.62 218.638 1820.1 218.423C1819.59 218.209 1819.04 218.097 1818.49 218.095H1760.51C1758.18 218.095 1756.26 220.002 1756.26 222.339V287.549H1728.41C1726.09 287.549 1724.2 289.456 1724.2 291.797V341.611C1724.2 343.948 1726.09 345.86 1728.41 345.86H1756.26V474.771C1756.26 526.837 1782.18 553.25 1833.35 553.25C1854.12 553.25 1871.36 548.953 1887.61 539.73C1888.95 539.014 1889.76 537.581 1889.76 536.059V488.605C1889.76 487.172 1889 485.784 1887.74 485.023C1887.13 484.633 1886.43 484.411 1885.71 484.38C1884.99 484.348 1884.27 484.509 1883.63 484.844C1872.48 490.44 1861.69 493.037 1849.6 493.037C1831.02 493.037 1822.7 484.575 1822.7 465.683V345.882H1886.49C1888.82 345.882 1890.7 343.975 1890.7 341.634V291.824C1890.72 291.268 1890.62 290.714 1890.42 290.196C1890.22 289.678 1889.92 289.206 1889.53 288.808C1889.14 288.411 1888.67 288.097 1888.16 287.885C1887.64 287.673 1887.09 287.568 1886.54 287.576L1886.49 287.549ZM2108.72 287.804V279.795C2108.72 256.233 2117.77 245.726 2138 245.726C2150.09 245.726 2159.8 248.126 2170.68 251.752C2172.03 252.173 2173.41 251.962 2174.49 251.161C2175.03 250.768 2175.48 250.249 2175.78 249.65C2176.08 249.05 2176.24 248.386 2176.23 247.714V198.871C2176.24 197.959 2175.96 197.068 2175.42 196.334C2174.87 195.599 2174.11 195.062 2173.23 194.802C2161.77 191.386 2147.09 187.88 2125.06 187.88C2071.56 187.88 2043.23 218.028 2043.23 275.031V287.298H2015.38C2013.05 287.298 2011.13 289.205 2011.13 291.542V341.611C2011.13 343.948 2013.05 345.86 2015.38 345.86H2043.23V544.655C2043.23 547.028 2045.15 548.908 2047.48 548.908H2105.41C2107.78 548.908 2109.66 547.028 2109.66 544.655V345.873H2163.79L2246.7 544.655C2237.3 565.517 2228.03 569.681 2215.41 569.681C2205.2 569.681 2194.41 566.636 2183.44 560.593C2182.4 560.068 2181.2 559.956 2180.08 560.279C2178.96 560.682 2178.02 561.488 2177.58 562.562L2157.92 605.675C2156.98 607.734 2157.79 610.107 2159.76 611.181C2180.26 622.284 2198.75 627.029 2221.63 627.029C2264.43 627.029 2288.11 607.062 2308.93 553.43L2409.48 293.606C2409.74 292.964 2409.84 292.266 2409.76 291.577C2409.68 290.888 2409.43 290.229 2409.03 289.662C2408.65 289.094 2408.14 288.628 2407.54 288.307C2406.94 287.985 2406.27 287.817 2405.58 287.817H2345.23C2343.4 287.817 2341.79 288.968 2341.21 290.665L2279.38 467.205L2211.69 290.548C2211.39 289.748 2210.85 289.058 2210.15 288.57C2209.44 288.083 2208.61 287.82 2207.75 287.817H2108.72V287.804ZM1979.88 287.549H1921.9C1919.58 287.549 1917.65 289.456 1917.65 291.797V544.655C1917.65 547.028 1919.58 548.908 1921.9 548.908H1979.88C1982.21 548.908 1984.13 547.028 1984.13 544.655V291.815C1984.13 291.257 1984.02 290.703 1983.81 290.187C1983.6 289.671 1983.28 289.202 1982.89 288.807C1982.49 288.412 1982.02 288.099 1981.51 287.886C1980.99 287.674 1980.44 287.565 1979.88 287.567V287.549ZM1951.23 172.408C1928.26 172.408 1909.64 190.996 1909.64 213.958C1909.64 236.933 1928.26 255.544 1951.23 255.544C1974.19 255.544 1992.77 236.933 1992.77 213.958C1992.77 191.001 1974.15 172.408 1951.23 172.408ZM2458.99 368.853C2436.07 368.853 2418.21 350.431 2418.21 328.06C2418.21 305.689 2436.29 287.056 2459.22 287.056C2482.14 287.056 2500 305.474 2500 327.827C2500 350.198 2481.91 368.853 2458.99 368.853ZM2459.22 291.112C2438.31 291.112 2422.51 307.722 2422.51 328.06C2422.51 348.389 2438.22 364.775 2458.99 364.775C2479.9 364.775 2495.7 348.179 2495.7 327.827C2495.7 307.498 2479.99 291.112 2459.22 291.112ZM2468.26 332.022L2479.81 348.174H2470.05L2459.66 333.356H2450.75V348.174H2442.61V305.358H2461.68C2471.66 305.358 2478.2 310.448 2478.2 319.017C2478.24 326.036 2474.17 330.325 2468.3 332.022H2468.26ZM2461.36 312.704H2450.75V326.247H2461.36C2466.65 326.247 2469.83 323.655 2469.83 319.469C2469.83 315.064 2466.65 312.704 2461.36 312.704Z" fill="#343434"/>
</svg>
