<svg width="2000" height="527" viewBox="0 0 2000 527" fill="none" xmlns="http://www.w3.org/2000/svg">
<g clip-path="url(#clip0_596_283)">
<path d="M1128.4 512.7H1217.6C1218.5 512.8 1219.3 512.6 1220.2 512.4C1221 512.1 1221.8 511.7 1222.4 511.1C1223 510.5 1223.6 509.8 1223.9 509C1224.3 508.2 1224.5 507.4 1224.5 506.5V262.2C1224.5 192.9 1258.8 156.4 1318.1 156.4C1377.4 156.4 1411.1 192.9 1411.1 262.2V506.5C1411.1 507.4 1411.3 508.2 1411.7 509C1412.1 509.8 1412.6 510.5 1413.2 511.1C1413.8 511.7 1414.6 512.1 1415.4 512.4C1416.2 512.7 1417.1 512.8 1418 512.7H1507.2C1508.1 512.8 1508.9 512.6 1509.8 512.4C1510.6 512.1 1511.4 511.7 1512 511.1C1512.6 510.5 1513.2 509.8 1513.5 509C1513.9 508.2 1514.1 507.4 1514.1 506.5V262.9C1514.1 158.4 1455.4 66.7998 1318.1 66.7998C1180.8 66.7998 1121.5 158.3 1121.5 262.9V506.6C1121.5 507.5 1121.7 508.3 1122.1 509.1C1122.5 509.9 1123 510.6 1123.6 511.2C1124.2 511.8 1125 512.2 1125.8 512.5C1126.7 512.7 1127.5 512.8 1128.4 512.7Z" fill="#343434"/>
<path d="M514.3 518.3C546.8 518.3 568 514.6 577.3 510.9C578.7 510.3 579.9 509.4 580.8 508.2C581.7 507 582.2 505.6 582.3 504.1V431.1C582.3 426.8 580.4 424.3 574.8 424.3C570.4 424.3 557.9 426.8 548 426.8C509.3 426.8 492.5 412.6 492.5 379.2V173.2H574.9C576.7 173.2 578.5 172.5 579.7 171.2C581 169.9 581.7 168.2 581.7 166.4V86.6C581.7 84.8 581 83.1 579.7 81.8C578.4 80.5 576.7 79.8 574.9 79.8H489.4V10.5C489.4 3.1 486.3 0 480.7 0H396.4C389.5 0 386.4 3.1 386.4 10.5V389.6C386.3 481.8 438.1 518.3 514.3 518.3Z" fill="#343434"/>
<path d="M156.1 523.2C256.6 523.2 328.4 462 328.4 382.2C328.4 292.5 268.5 266.6 186.7 249.2L146.1 240.5C115.5 233.7 98.7 219.5 98.7 195.3C98.7 164.4 129.9 147.7 173 147.7C233.5 147.7 274.7 174.9 281 174.9C282.7 174.8 284.4 174.2 285.8 173.2C287.2 172.2 288.4 170.9 289.1 169.3L305.3 109.3C308.4 101.3 307.8 99.4002 302.2 96.3002C266 77.7002 227.3 67.2002 172.4 67.2002C70.5 67.4002 0 125.5 0 202.9C0 275.9 56.8 316.1 138 333.4L179.2 342.1C212.3 348.9 230.9 361.9 230.9 389.7C230.9 418.1 208.4 442.9 155.4 442.9C80.5 442.9 29.3 413.2 21.2 413.2C16.2 413.2 14.3 415.7 12.5 423.7L1.9 473.8C-1.2 484.3 1.9 491.1 8.8 494.2C34.3 508.4 104.2 523.2 156.1 523.2Z" fill="#343434"/>
<path d="M836.9 437.3C771.4 437.3 711.5 388.4 711.5 296.3C711.5 204.2 771.4 156.5 836.9 156.5C903 156.5 961.7 204.1 961.7 296.3C961.8 389 903.1 437.3 836.9 437.3ZM836.9 526.3C968 526.3 1063.4 429.2 1063.4 296.2C1063.4 163.2 967.9 66.7002 836.9 66.7002C706.4 66.7002 610.3 163.2 610.3 296.2C610.3 429.2 706.5 526.3 836.9 526.3Z" fill="#343434"/>
<path d="M2000 291.3C2000 154.6 1920.7 66.7998 1794.6 66.7998C1676 66.7998 1573.7 157.1 1573.7 294.4C1573.7 441 1678.5 526.3 1790.9 526.3C1885.2 526.3 1939.5 489.5 1973.1 444.7C1979.6 436 1980.9 432.3 1980.9 429.8C1980.9 427.4 1979.3 425.5 1973.7 420.5L1934.4 386.5C1925 378.5 1921.9 376 1918.7 376C1915.6 376 1913.7 377.9 1911.2 381C1884.4 416.9 1846.9 437.3 1796.4 437.3C1732.6 437.3 1690.1 394.4 1679.4 324.7H1967.4C1987.4 324.7 2000 318.4 2000 291.3ZM1790.9 152.8C1859 152.8 1895.1 198.3 1897 248.7H1680.8C1692.7 194.6 1729.7 152.8 1790.9 152.8Z" fill="#343434"/>
</g>
<defs>
<clipPath id="clip0_596_283">
<rect width="2000" height="526.3" fill="white"/>
</clipPath>
</defs>
</svg>
