<svg width="2500" height="868" viewBox="0 0 2500 868" fill="none" xmlns="http://www.w3.org/2000/svg">
<path d="M143.834 619.829C154.398 647.866 169.025 671.838 187.716 691.746C206.407 711.656 228.551 726.892 254.147 737.457C279.746 748.022 307.577 753.303 337.645 753.303C366.901 753.303 394.326 747.817 419.924 736.845C445.523 725.873 467.869 710.434 486.965 690.527C506.061 670.616 520.892 646.849 531.457 619.219C542.022 591.59 547.303 560.713 547.303 526.58V0H675.29V853.254H548.522V774.022C520.08 804.087 486.557 827.248 447.959 843.503C409.357 859.754 367.713 867.88 323.019 867.88C277.51 867.88 235.051 859.956 195.638 844.11C156.227 828.264 122.095 805.716 93.2485 776.46C64.4025 747.204 41.6467 712.063 24.9891 671.023C8.32879 629.986 0 584.278 0 533.892V0H127.988V526.58C127.988 560.713 133.269 591.792 143.834 619.829ZM895.906 0V310.827C924.348 282.386 957.261 259.838 994.641 243.178C1032.02 226.517 1072.65 218.189 1116.53 218.189C1162.04 218.189 1204.7 226.72 1244.52 243.784C1284.34 260.849 1318.87 284.01 1348.13 313.266C1377.39 342.522 1400.55 377.056 1417.61 416.874C1434.68 456.695 1443.21 498.951 1443.21 543.645C1443.21 588.337 1434.68 630.391 1417.61 669.802C1400.55 709.215 1377.39 743.55 1348.13 772.8C1318.87 802.056 1284.34 825.217 1244.52 842.282C1204.7 859.346 1162.04 867.878 1116.53 867.878C1072.65 867.878 1031.82 859.549 994.031 842.888C956.244 826.231 923.129 803.68 894.687 775.239V853.251H772.795V0H895.906ZM909.923 627.75C920.893 653.756 936.132 676.509 955.635 696.013C975.138 715.516 997.891 730.957 1023.89 742.333C1049.9 753.71 1077.93 759.398 1108 759.398C1137.26 759.398 1164.88 753.71 1190.89 742.333C1216.89 730.957 1239.44 715.518 1258.54 696.013C1277.64 676.512 1292.87 653.756 1304.25 627.75C1315.63 601.747 1321.31 573.713 1321.31 543.645C1321.31 513.577 1315.63 485.338 1304.25 458.928C1292.87 432.517 1277.64 409.562 1258.54 390.059C1239.44 370.558 1216.89 355.32 1190.89 344.35C1164.88 333.381 1137.26 327.892 1108 327.892C1078.75 327.892 1051.12 333.378 1025.12 344.35C999.113 355.322 976.36 370.558 956.854 390.059C937.353 409.562 921.912 432.517 910.536 458.928C899.159 485.338 893.471 513.577 893.471 543.645C893.468 573.713 898.954 601.747 909.923 627.75ZM1512.67 418.096C1528.92 379.09 1551.28 344.758 1579.71 315.097C1608.15 285.436 1641.88 262.074 1680.89 245.009C1719.89 227.944 1762.15 219.413 1807.66 219.413C1852.35 219.413 1893.79 227.54 1931.99 243.79C1970.18 260.043 2003.09 282.594 2030.72 311.442C2058.35 340.288 2079.89 374.421 2095.32 413.832C2110.76 453.245 2118.48 496.111 2118.48 542.432V582.657H1612.63C1616.69 607.848 1624.82 631.211 1637.01 652.742C1649.2 674.276 1664.43 692.967 1682.72 708.813C1701 724.662 1721.72 737.055 1744.88 745.991C1768.04 754.929 1792.62 759.401 1818.63 759.401C1892.58 759.401 1952.31 728.926 1997.81 667.978L2086.79 733.8C2055.91 775.244 2017.72 807.75 1972.22 831.315C1926.71 854.88 1875.51 866.664 1818.63 866.664C1772.31 866.664 1729.04 858.535 1688.81 842.284C1648.59 826.034 1613.65 803.278 1583.99 774.022C1554.33 744.766 1530.96 710.434 1513.9 671.023C1496.83 631.613 1488.3 588.744 1488.3 542.426C1488.29 498.546 1496.42 457.102 1512.67 418.096ZM1683.93 369.946C1649.4 398.795 1626.44 437.192 1615.07 485.136H1994.16C1983.59 437.192 1961.04 398.795 1926.5 369.946C1891.97 341.1 1851.54 326.676 1805.22 326.676C1758.9 326.676 1718.47 341.1 1683.93 369.946ZM2348.85 383.963C2322.85 412.405 2309.85 451.004 2309.85 499.763V853.256H2186.73V231.599H2308.63V308.392C2324.07 283.201 2344.18 263.29 2368.96 248.664C2393.75 234.034 2423.21 226.72 2457.34 226.72H2500V341.3H2448.81C2408.18 341.303 2374.86 355.522 2348.85 383.963Z" fill="#343434"/>
</svg>
