<svg width="2819" height="764" viewBox="0 0 2819 764" fill="none" xmlns="http://www.w3.org/2000/svg">
<path d="M946.325 618V347.925H884.25V281.95H946.325V233.525C946.325 206.442 954.342 185.425 970.375 170.475C986.408 155.525 1008.94 148.05 1037.98 148.05H1115L1115.65 211.1H1071.12C1059.21 211.1 1050.98 214.133 1046.43 220.2C1041.88 226.05 1039.6 235.8 1039.6 249.45V281.95H1112.4V347.925H1041.55V618H946.325ZM1167.33 618V281.95H1258V618H1167.33ZM1166.35 233.85V148.375H1258.65V233.85H1166.35ZM1374.04 618V281.95H1467.31V329.4C1472.51 321.167 1479.23 313.258 1487.46 305.675C1495.91 297.875 1506.53 291.483 1519.31 286.5C1532.09 281.517 1547.26 279.025 1564.81 279.025C1585.39 279.025 1604.57 283.033 1622.34 291.05C1640.32 299.067 1654.84 311.742 1665.89 329.075C1676.94 346.192 1682.46 368.617 1682.46 396.35V618H1587.56V408.05C1587.56 389.85 1582.14 376.2 1571.31 367.1C1560.48 358 1547.26 353.45 1531.66 353.45C1521.26 353.45 1511.19 355.292 1501.44 358.975C1491.9 362.658 1484.1 368.183 1478.04 375.55C1471.97 382.917 1468.94 392.017 1468.94 402.85V618H1374.04ZM1938.41 624.5C1905.48 624.5 1876.77 617.458 1852.29 603.375C1828.02 589.292 1809.17 569.358 1795.74 543.575C1782.52 517.792 1775.91 487.242 1775.91 451.925C1775.91 416.608 1782.52 385.733 1795.74 359.3C1809.17 332.867 1828.02 312.283 1852.29 297.55C1876.77 282.817 1905.59 275.45 1938.74 275.45C1971.89 275.45 2000.6 282.708 2024.86 297.225C2049.13 311.525 2067.87 331.892 2081.09 358.325C2094.3 384.758 2100.91 415.958 2100.91 451.925C2100.91 485.725 2094.41 515.625 2081.41 541.625C2068.63 567.408 2050.1 587.667 2025.84 602.4C2001.79 617.133 1972.65 624.5 1938.41 624.5ZM1938.74 553.975C1955.42 553.975 1968.85 549.1 1979.04 539.35C1989.22 529.6 1996.59 516.817 2001.14 501C2005.69 484.967 2007.96 467.525 2007.96 448.675C2007.96 430.908 2005.9 414.117 2001.79 398.3C1997.67 382.483 1990.52 369.7 1980.34 359.95C1970.15 350.2 1956.29 345.325 1938.74 345.325C1922.05 345.325 1908.51 349.983 1898.11 359.3C1887.93 368.4 1880.45 380.858 1875.69 396.675C1870.92 412.275 1868.54 429.608 1868.54 448.675C1868.54 466.225 1870.7 483.125 1875.04 499.375C1879.37 515.408 1886.63 528.517 1896.81 538.7C1907 548.883 1920.97 553.975 1938.74 553.975ZM2198.21 618V281.95H2289.54V361.575C2294.96 344.458 2302.54 329.508 2312.29 316.725C2322.26 303.725 2334.28 293.65 2348.36 286.5C2362.45 279.133 2378.37 275.45 2396.14 275.45C2399.17 275.45 2401.99 275.667 2404.59 276.1C2407.41 276.317 2409.46 276.75 2410.76 277.4V367.75C2408.81 366.883 2406.43 366.342 2403.61 366.125C2401.01 365.908 2398.63 365.692 2396.46 365.475C2377.83 363.958 2361.91 364.5 2348.69 367.1C2335.47 369.7 2324.75 374.142 2316.51 380.425C2308.28 386.708 2302.32 394.4 2298.64 403.5C2294.96 412.6 2293.11 422.783 2293.11 434.05V618H2198.21ZM2590.74 624.5C2569.51 624.5 2550.23 620.492 2532.89 612.475C2515.78 604.458 2502.24 592.867 2492.27 577.7C2482.3 562.317 2477.32 543.683 2477.32 521.8C2477.32 484.967 2491.08 457.017 2518.59 437.95C2546.11 418.667 2589.55 408.7 2648.92 408.05L2691.17 407.4V387.25C2691.17 371.867 2686.62 360.058 2677.52 351.825C2668.64 343.375 2654.66 339.258 2635.59 339.475C2621.94 339.692 2608.84 342.942 2596.27 349.225C2583.92 355.508 2575.36 366.45 2570.59 382.05H2491.62C2492.92 357.783 2499.96 337.85 2512.74 322.25C2525.74 306.433 2543.19 294.733 2565.07 287.15C2586.95 279.35 2611.98 275.45 2640.14 275.45C2674.38 275.45 2701.89 279.783 2722.69 288.45C2743.49 296.9 2758.55 309.142 2767.87 325.175C2777.4 340.992 2782.17 359.842 2782.17 381.725V618H2702.87L2695.07 560.15C2683.59 584.417 2669.18 601.208 2651.84 610.525C2634.73 619.842 2614.36 624.5 2590.74 624.5ZM2622.92 562.1C2631.37 562.1 2639.6 560.583 2647.62 557.55C2655.85 554.3 2663.22 550.075 2669.72 544.875C2676.22 539.458 2681.31 533.392 2684.99 526.675C2688.89 519.958 2690.95 513.025 2691.17 505.875V456.15L2657.04 456.8C2641.23 457.017 2626.49 458.967 2612.84 462.65C2599.19 466.117 2588.14 471.858 2579.69 479.875C2571.46 487.892 2567.34 498.725 2567.34 512.375C2567.34 527.975 2572.65 540.217 2583.27 549.1C2594.1 557.767 2607.32 562.1 2622.92 562.1Z" fill="#16181B"/>
<path d="M666.674 347.973V416.64C666.674 434.973 652.007 449.973 633.341 450.64H568.007C532.007 450.64 499.007 424.306 496.007 388.306C494.007 367.306 502.007 347.64 516.007 333.973C528.341 321.306 545.341 313.974 564.007 313.974H633.341C652.007 314.64 666.674 329.64 666.674 347.973Z" fill="#CCE8C9"/>
<path d="M615.667 500.667H568C504.667 500.667 451.333 453 446 392.333C443 357.667 455.667 323 481 298.333C502.333 276.333 532 264 564 264H615.667C625.333 264 633.333 256 632.333 246.333C625 165.333 571.333 110 491.667 100.667C483.667 99.3333 475.333 99 466.667 99H166.667C157.333 99 148.333 99.6667 139.667 101C54.6667 111.667 0 175 0 265.667V499C0 591 74.6667 665.667 166.667 665.667H466.667C560 665.667 624.333 607.333 632.333 518.333C633.333 508.667 625.333 500.667 615.667 500.667ZM366.667 307.333H166.667C153 307.333 141.667 296 141.667 282.333C141.667 268.667 153 257.333 166.667 257.333H366.667C380.333 257.333 391.667 268.667 391.667 282.333C391.667 296 380.333 307.333 366.667 307.333Z" fill="#CCE8C9"/>
</svg>
