<svg width="45" height="45" viewBox="0 0 45 45" fill="none" xmlns="http://www.w3.org/2000/svg">
<g clip-path="url(#clip0_311_6)">
<path d="M31.9322 5.33143C31.9473 5.25769 32.0527 5.25769 32.0678 5.33143C32.85 9.15882 35.8411 12.1499 39.6685 12.9322C39.7422 12.9473 39.7422 13.0526 39.6685 13.0677C35.8411 13.85 32.85 16.8411 32.0678 20.6684C32.0527 20.7422 31.9473 20.7422 31.9322 20.6684C31.15 16.8411 28.1589 13.85 24.3315 13.0677C24.2577 13.0526 24.2577 12.9473 24.3315 12.9322C28.1589 12.1499 31.15 9.15882 31.9322 5.33143Z" stroke="#F8F5FF" stroke-width="3"/>
<path d="M40.4375 0.752147C40.5626 0.139909 41.4374 0.139909 41.5625 0.752148C41.8389 2.10434 42.8956 3.16106 44.2478 3.43744C44.8601 3.56258 44.8601 4.43735 44.2478 4.56249C42.8956 4.83887 41.8389 5.89559 41.5625 7.24778C41.4374 7.86002 40.5626 7.86002 40.4375 7.24778C40.1611 5.89559 39.1044 4.83887 37.7522 4.56249C37.1399 4.43735 37.1399 3.56258 37.7522 3.43744C39.1044 3.16106 40.1611 2.10434 40.4375 0.752147Z" fill="#F8F5FF"/>
<path d="M19.2305 13C18.4568 13.1298 17.7104 13.3398 17 13.6211C12.8999 15.2449 10 19.2455 10 23.9234C10 30.0409 14.9592 35 21.0766 35C25.7545 35 29.7551 32.1002 31.3789 28C31.6602 27.2896 31.8702 26.5432 32 25.7695M24.8 5.38007C23.5722 5.13083 22.3014 5 21 5C10.5066 5 2 13.5066 2 24C2 34.4934 10.5066 43 21 43C31.4934 43 40 34.4934 40 24C40 22.3598 39.7922 20.7682 39.4014 19.25M24.5 24C24.5 25.933 22.933 27.5 21 27.5C19.067 27.5 17.5 25.933 17.5 24C17.5 22.067 19.067 20.5 21 20.5C22.933 20.5 24.5 22.067 24.5 24Z" stroke="#9E89EC" stroke-width="3" stroke-linecap="round"/>
</g>
<defs>
<clipPath id="clip0_311_6">
<rect width="45" height="45" fill="white"/>
</clipPath>
</defs>
</svg>
