<svg width="137" height="48" viewBox="0 0 137 48" fill="none" xmlns="http://www.w3.org/2000/svg">
<rect x="11" y="16" width="126" height="32" rx="16" fill="#DD5936"/>
<path d="M34.2955 26.3636L37.5341 35.8409H37.6648L40.9034 26.3636H42.8011L38.6136 38H36.5852L32.3977 26.3636H34.2955ZM47.2315 38.1761C46.3717 38.1761 45.6312 37.9924 45.0099 37.625C44.3925 37.2538 43.9152 36.733 43.5781 36.0625C43.2448 35.3883 43.0781 34.5985 43.0781 33.6932C43.0781 32.7992 43.2448 32.0114 43.5781 31.3295C43.9152 30.6477 44.3849 30.1155 44.9872 29.733C45.5933 29.3504 46.3016 29.1591 47.1122 29.1591C47.6046 29.1591 48.0819 29.2405 48.544 29.4034C49.0062 29.5663 49.4209 29.822 49.7884 30.1705C50.1558 30.5189 50.4455 30.9716 50.6577 31.5284C50.8698 32.0814 50.9759 32.7538 50.9759 33.5455V34.1477H44.0384V32.875H49.3111C49.3111 32.428 49.2202 32.0322 49.0384 31.6875C48.8565 31.339 48.6009 31.0644 48.2713 30.8636C47.9455 30.6629 47.563 30.5625 47.1236 30.5625C46.6463 30.5625 46.2296 30.6799 45.8736 30.9148C45.5213 31.1458 45.2486 31.4489 45.0554 31.8239C44.866 32.1951 44.7713 32.5985 44.7713 33.0341V34.0284C44.7713 34.6117 44.8736 35.108 45.0781 35.517C45.2865 35.9261 45.5762 36.2386 45.9474 36.4545C46.3187 36.6667 46.7524 36.7727 47.2486 36.7727C47.5705 36.7727 47.8641 36.7273 48.1293 36.6364C48.3944 36.5417 48.6236 36.4015 48.8168 36.2159C49.0099 36.0303 49.1577 35.8011 49.2599 35.5284L50.8679 35.8182C50.7391 36.2917 50.508 36.7064 50.1747 37.0625C49.8452 37.4148 49.4304 37.6894 48.9304 37.8864C48.4342 38.0795 47.8679 38.1761 47.2315 38.1761ZM52.8608 38V29.2727H54.5028V30.6591H54.5938C54.7528 30.1894 55.0331 29.8201 55.4347 29.5511C55.84 29.2784 56.2983 29.142 56.8097 29.142C56.9157 29.142 57.0407 29.1458 57.1847 29.1534C57.3324 29.161 57.4479 29.1705 57.5312 29.1818V30.8068C57.4631 30.7879 57.3419 30.767 57.1676 30.7443C56.9934 30.7178 56.8191 30.7045 56.6449 30.7045C56.2434 30.7045 55.8854 30.7898 55.571 30.9602C55.2604 31.1269 55.0142 31.3598 54.8324 31.6591C54.6506 31.9545 54.5597 32.2917 54.5597 32.6705V38H52.8608ZM63.2358 41.2727V29.2727H64.8949V30.6875H65.0369C65.1354 30.5057 65.2775 30.2955 65.4631 30.0568C65.6487 29.8182 65.9063 29.6098 66.2358 29.4318C66.5653 29.25 67.0009 29.1591 67.5426 29.1591C68.2472 29.1591 68.8759 29.3371 69.429 29.6932C69.982 30.0492 70.4157 30.5625 70.7301 31.233C71.0483 31.9034 71.2074 32.7102 71.2074 33.6534C71.2074 34.5966 71.0502 35.4053 70.7358 36.0795C70.4214 36.75 69.9896 37.267 69.4403 37.6307C68.8911 37.9905 68.2642 38.1705 67.5597 38.1705C67.0294 38.1705 66.5956 38.0814 66.2585 37.9034C65.9252 37.7254 65.6638 37.517 65.4744 37.2784C65.285 37.0398 65.1392 36.8277 65.0369 36.642H64.9347V41.2727H63.2358ZM64.9006 33.6364C64.9006 34.25 64.9896 34.7879 65.1676 35.25C65.3456 35.7121 65.6032 36.0739 65.9403 36.3352C66.2775 36.5928 66.6903 36.7216 67.179 36.7216C67.6866 36.7216 68.1108 36.5871 68.4517 36.3182C68.7926 36.0455 69.0502 35.6761 69.2244 35.2102C69.4025 34.7443 69.4915 34.2197 69.4915 33.6364C69.4915 33.0606 69.4044 32.5436 69.2301 32.0852C69.0597 31.6269 68.8021 31.2652 68.4574 31C68.1165 30.7348 67.6903 30.6023 67.179 30.6023C66.6866 30.6023 66.2699 30.7292 65.929 30.983C65.5919 31.2367 65.3362 31.5909 65.1619 32.0455C64.9877 32.5 64.9006 33.0303 64.9006 33.6364ZM73.1108 38V29.2727H74.7528V30.6591H74.8438C75.0028 30.1894 75.2831 29.8201 75.6847 29.5511C76.09 29.2784 76.5483 29.142 77.0597 29.142C77.1657 29.142 77.2907 29.1458 77.4347 29.1534C77.5824 29.161 77.6979 29.1705 77.7812 29.1818V30.8068C77.7131 30.7879 77.5919 30.767 77.4176 30.7443C77.2434 30.7178 77.0691 30.7045 76.8949 30.7045C76.4934 30.7045 76.1354 30.7898 75.821 30.9602C75.5104 31.1269 75.2642 31.3598 75.0824 31.6591C74.9006 31.9545 74.8097 32.2917 74.8097 32.6705V38H73.1108ZM82.6151 38.1761C81.7969 38.1761 81.0829 37.9886 80.473 37.6136C79.8632 37.2386 79.3897 36.714 79.0526 36.0398C78.7154 35.3655 78.5469 34.5777 78.5469 33.6761C78.5469 32.7708 78.7154 31.9792 79.0526 31.3011C79.3897 30.6231 79.8632 30.0966 80.473 29.7216C81.0829 29.3466 81.7969 29.1591 82.6151 29.1591C83.4332 29.1591 84.1473 29.3466 84.7571 29.7216C85.367 30.0966 85.8404 30.6231 86.1776 31.3011C86.5147 31.9792 86.6832 32.7708 86.6832 33.6761C86.6832 34.5777 86.5147 35.3655 86.1776 36.0398C85.8404 36.714 85.367 37.2386 84.7571 37.6136C84.1473 37.9886 83.4332 38.1761 82.6151 38.1761ZM82.6207 36.75C83.151 36.75 83.5904 36.6098 83.9389 36.3295C84.2874 36.0492 84.545 35.6761 84.7116 35.2102C84.8821 34.7443 84.9673 34.2311 84.9673 33.6705C84.9673 33.1136 84.8821 32.6023 84.7116 32.1364C84.545 31.6667 84.2874 31.2898 83.9389 31.0057C83.5904 30.7216 83.151 30.5795 82.6207 30.5795C82.0866 30.5795 81.6435 30.7216 81.2912 31.0057C80.9427 31.2898 80.6832 31.6667 80.5128 32.1364C80.3461 32.6023 80.2628 33.1136 80.2628 33.6705C80.2628 34.2311 80.3461 34.7443 80.5128 35.2102C80.6832 35.6761 80.9427 36.0492 81.2912 36.3295C81.6435 36.6098 82.0866 36.75 82.6207 36.75ZM88.5795 29.2727H90.2784V38.5682C90.2784 39.1515 90.1723 39.6439 89.9602 40.0455C89.7519 40.447 89.4413 40.7519 89.0284 40.9602C88.6193 41.1686 88.1136 41.2727 87.5114 41.2727C87.4508 41.2727 87.3939 41.2727 87.3409 41.2727C87.2841 41.2727 87.2254 41.2708 87.1648 41.267V39.8068C87.2178 39.8068 87.2652 39.8068 87.3068 39.8068C87.3447 39.8068 87.3883 39.8068 87.4375 39.8068C87.839 39.8068 88.1288 39.6989 88.3068 39.483C88.4886 39.2708 88.5795 38.9621 88.5795 38.5568V29.2727ZM89.4205 27.9261C89.125 27.9261 88.8712 27.8277 88.6591 27.6307C88.4508 27.4299 88.3466 27.1913 88.3466 26.9148C88.3466 26.6345 88.4508 26.3958 88.6591 26.1989C88.8712 25.9981 89.125 25.8977 89.4205 25.8977C89.7159 25.8977 89.9678 25.9981 90.1761 26.1989C90.3883 26.3958 90.4943 26.6345 90.4943 26.9148C90.4943 27.1913 90.3883 27.4299 90.1761 27.6307C89.9678 27.8277 89.7159 27.9261 89.4205 27.9261ZM96.3253 38.1761C95.4654 38.1761 94.7249 37.9924 94.1037 37.625C93.4863 37.2538 93.009 36.733 92.6719 36.0625C92.3385 35.3883 92.1719 34.5985 92.1719 33.6932C92.1719 32.7992 92.3385 32.0114 92.6719 31.3295C93.009 30.6477 93.4787 30.1155 94.081 29.733C94.687 29.3504 95.3954 29.1591 96.206 29.1591C96.6984 29.1591 97.1757 29.2405 97.6378 29.4034C98.0999 29.5663 98.5147 29.822 98.8821 30.1705C99.2495 30.5189 99.5393 30.9716 99.7514 31.5284C99.9635 32.0814 100.07 32.7538 100.07 33.5455V34.1477H93.1321V32.875H98.4048C98.4048 32.428 98.3139 32.0322 98.1321 31.6875C97.9503 31.339 97.6946 31.0644 97.3651 30.8636C97.0393 30.6629 96.6567 30.5625 96.2173 30.5625C95.7401 30.5625 95.3234 30.6799 94.9673 30.9148C94.6151 31.1458 94.3423 31.4489 94.1491 31.8239C93.9598 32.1951 93.8651 32.5985 93.8651 33.0341V34.0284C93.8651 34.6117 93.9673 35.108 94.1719 35.517C94.3802 35.9261 94.67 36.2386 95.0412 36.4545C95.4124 36.6667 95.8461 36.7727 96.3423 36.7727C96.6643 36.7727 96.9579 36.7273 97.223 36.6364C97.4882 36.5417 97.7173 36.4015 97.9105 36.2159C98.1037 36.0303 98.2514 35.8011 98.3537 35.5284L99.9616 35.8182C99.8329 36.2917 99.6018 36.7064 99.2685 37.0625C98.9389 37.4148 98.5241 37.6894 98.0241 37.8864C97.5279 38.0795 96.9616 38.1761 96.3253 38.1761ZM106.028 29.2727V30.6364H101.261V29.2727H106.028ZM102.54 27.1818H104.239V35.4375C104.239 35.767 104.288 36.0152 104.386 36.1818C104.485 36.3447 104.612 36.4564 104.767 36.517C104.926 36.5739 105.098 36.6023 105.284 36.6023C105.42 36.6023 105.54 36.5928 105.642 36.5739C105.744 36.5549 105.824 36.5398 105.881 36.5284L106.188 37.9318C106.089 37.9697 105.949 38.0076 105.767 38.0455C105.585 38.0871 105.358 38.1098 105.085 38.1136C104.638 38.1212 104.222 38.0417 103.835 37.875C103.449 37.7083 103.136 37.4508 102.898 37.1023C102.659 36.7538 102.54 36.3163 102.54 35.7898V27.1818ZM111.49 38.1761C110.672 38.1761 109.958 37.9886 109.348 37.6136C108.738 37.2386 108.265 36.714 107.928 36.0398C107.59 35.3655 107.422 34.5777 107.422 33.6761C107.422 32.7708 107.59 31.9792 107.928 31.3011C108.265 30.6231 108.738 30.0966 109.348 29.7216C109.958 29.3466 110.672 29.1591 111.49 29.1591C112.308 29.1591 113.022 29.3466 113.632 29.7216C114.242 30.0966 114.715 30.6231 115.053 31.3011C115.39 31.9792 115.558 32.7708 115.558 33.6761C115.558 34.5777 115.39 35.3655 115.053 36.0398C114.715 36.714 114.242 37.2386 113.632 37.6136C113.022 37.9886 112.308 38.1761 111.49 38.1761ZM111.496 36.75C112.026 36.75 112.465 36.6098 112.814 36.3295C113.162 36.0492 113.42 35.6761 113.587 35.2102C113.757 34.7443 113.842 34.2311 113.842 33.6705C113.842 33.1136 113.757 32.6023 113.587 32.1364C113.42 31.6667 113.162 31.2898 112.814 31.0057C112.465 30.7216 112.026 30.5795 111.496 30.5795C110.962 30.5795 110.518 30.7216 110.166 31.0057C109.818 31.2898 109.558 31.6667 109.388 32.1364C109.221 32.6023 109.138 33.1136 109.138 33.6705C109.138 34.2311 109.221 34.7443 109.388 35.2102C109.558 35.6761 109.818 36.0492 110.166 36.3295C110.518 36.6098 110.962 36.75 111.496 36.75Z" fill="white"/>
<path d="M4.5982 17.2589L0.0396228 1.2674C-0.195759 0.441681 0.661861 -0.271349 1.44169 0.101717L16.5444 7.32678C17.3474 7.71094 17.2871 8.86352 16.4484 9.16068L10.237 11.3615C10.0114 11.4414 9.82224 11.5987 9.70362 11.8049L6.43762 17.4837C5.99662 18.2505 4.84058 18.1092 4.5982 17.2589Z" fill="#DD5936"/>
</svg>
